<svg version="1" xmlns="http://www.w3.org/2000/svg" width="3149.333" height="3149.333" viewBox="0 0 2362.000000 2362.000000"><path d="M0 1181.5v766.6l280.8-.4c154.4-.1 281.6-.5 282.7-.9 1.1-.3 7.6-.9 14.4-1.3 6.9-.3 12.7-.8 13-1 .4-.2 4.4-.6 9.1-1 4.7-.3 9.2-.8 10-1 .8-.2 4.4-.7 8-1 6-.7 44.7-6.6 51.5-8 26.3-5.2 59.8-13.4 75-18.3 5-1.6 11.7-3.7 15-4.7 7.3-2.1 42.5-14.9 48-17.4 2.2-1 9.9-4.4 17-7.4 14.7-6.3 47.5-22.8 61-30.7 5-2.9 10.4-6 12-7 8.3-4.7 33.2-21.2 45.9-30.4 13.8-10 40.8-31.2 47.2-37.2 1.7-1.6 6.5-5.8 10.5-9.4 9-7.9 38.3-36.9 46.9-46.5 3.5-3.9 8.4-9.3 10.9-12 2.6-2.8 7.6-8.6 11.1-13 3.6-4.4 7.3-8.9 8.4-10 1-1.1 7.8-10 15.2-19.7 37.2-49.5 66.1-100.3 90.3-159.3.5-1.1.9 61.4.9 138.8-.1 77.4.1 140.9.3 141.1 4.4 3.9 51.2 32.4 69 42 15.5 8.4 50.3 25.3 65 31.6 7.9 3.4 16.3 7.1 18.7 8.1 2.3 1.1 7.9 3.3 12.5 5 4.5 1.8 11.1 4.3 14.7 5.6 11.2 4.3 44.1 15.4 54 18.4 5.2 1.5 12.7 3.7 16.5 4.9 23.8 7.1 73.9 18.7 97.4 22.6 1.8.3 4.1.7 5 .9 10.8 2.1 20.6 3.7 30 5 6.2.8 12.3 1.7 13.5 2 2.1.5 7.1 1.1 16.1 2 2.8.3 6.4.7 8 1 1.7.3 5.3.7 8 1 2.8.3 6.8.7 9 1 9.9 1.1 21.9 2.2 35 3 4.4.3 10 .7 12.5.9 32.8 2.8 150.4 2.9 167 .2 1.4-.3 6.6-.7 11.5-1 5-.3 10.1-.8 11.5-1 1.4-.2 5.4-.7 9-1.1 20.7-2.1 62.9-8.5 67-10.2.8-.3 1.9-.5 2.4-.4 2.6.6 46.9-10.3 69.6-17.1 43.3-12.9 88.9-31.8 123.5-51.2 2.2-1.2 6.7-3.7 10-5.6 21.3-11.9 62.2-39.7 73.8-50.2 1.4-1.3 4.5-3.9 6.9-5.8 14.5-11.8 40-37.4 50.8-50.9 1.9-2.4 4.2-5.1 5.1-6 2.6-2.7 15.3-20.2 20.4-28.1 2.6-4.1 5.6-8.7 6.6-10.1 7-10.3 21.1-38.3 27.9-55.3 8.1-20.3 12-33 17.6-56.1 2.5-10.2 2.6-10.8 4-18.5.4-2.5.8-4.7.9-5 .1-.3.5-2.8.9-5.5.4-2.8 1-6.1 1.2-7.5.2-1.4.6-5 1-8 .3-3 .8-6.4 1-7.4 1.2-6.4 1.9-26 1.9-52.6 0-30.7-.6-44.6-2.4-57.5-.6-3.9-1.3-9.3-1.6-12-.3-2.8-1-7-1.5-9.5s-1.4-7.4-2.1-11c-4.5-24.1-14.2-55.7-23.1-75.5-4.3-9.3-16.4-32.9-18.7-36.3-1-1.5-3.9-6.1-6.6-10.2-21-32.9-53.3-66.3-87.5-90.5-22.9-16.3-65.2-42.8-88-55.3-4.1-2.2-10.4-5.7-14-7.6-14.2-7.9-54.6-27.8-71.1-35.1-9.6-4.3-19.6-8.8-22.4-10-8.6-3.9-50.4-20.5-63.5-25.2-33.1-11.8-77.9-26.6-87-28.8-1.5-.3-20.8-5.9-49-14.2-8.5-2.5-19.3-5.5-24-6.8-9.8-2.6-16.6-4.5-42-11.5-31.2-8.6-36.1-10-47.5-13.1-6-1.6-14.4-3.9-18.5-5-13.4-3.5-41.1-12.8-58.5-19.7-20.3-8-52.2-23.9-65.5-32.6-30.5-20.2-47.1-43.4-51.7-72.1-.6-3.9-.5-26 .2-30.5 1.2-8.4 1.6-10.5 3.2-17 8-32.8 31.5-60.1 67-77.9 20-10 48.7-19.2 73.3-23.6 8.4-1.5 22.3-3.5 27-4 3-.3 6.4-.7 7.5-1 1.1-.2 5.6-.7 10-1 4.4-.4 9-.8 10.2-1 5-.8 41.1-1.9 60.8-1.8 18.7 0 47 .9 58 1.8 2.2.1 8.1.6 13 1 16.8 1.2 20 1.5 32.5 3 6.9.8 14.1 1.7 16 2 1.9.3 5.3.7 7.5 1 82.6 11.1 173.9 37.6 253 73.5 3.9 1.7 8.6 3.8 10.5 4.7 5.5 2.5 48.1 23.8 52.5 26.3 2.2 1.2 6.3 3.5 9 5 6.4 3.5 10.3 5.7 24.1 13.6 6.1 3.5 11.4 6.4 11.8 6.4.3 0 .5-66.5.4-147.8l-.3-147.7-21-10.6c-56.8-28.6-113.1-50.9-173.5-68.8-17.2-5.1-54.1-14.8-63-16.5-1.4-.3-10-2.1-19.1-4-9.2-1.9-18-3.7-19.5-3.9-17.7-3.1-32.7-5.7-36.4-6.2-2.5-.3-5.6-.8-7-1-1.4-.2-4.9-.7-7.9-1-3-.4-6.1-.8-7-1-.9-.1-4.5-.6-8.1-1-3.6-.4-7.2-.8-8-1-.8-.1-5-.6-9.2-1-4.3-.3-9.1-.8-10.7-1-1.7-.2-6.8-.7-11.3-1-4.6-.3-10.1-.8-12.3-1-30.4-2.8-133.2-2.8-163 0-2.2.2-7.8.7-12.5 1-4.7.4-9.6.8-11 1-1.4.2-5.4.7-9 1-5.5.5-16.4 1.9-31.8 4-1.8.3-5.4.8-8 1.1-2.6.3-7.8 1.1-11.7 1.9-3.8.8-8.6 1.6-10.5 1.9-5.9.9-31.7 6.4-45 9.7-28.2 7-67.1 19.5-86.5 27.9-30 13-40.8 18.2-60.5 29.3-11 6.2-32 19.6-44.8 28.6-4.5 3.1-19.3 14.2-20.2 15.1-.3.3-4.8 4-10 8.4-12.6 10.5-38.6 36.7-48.6 49.1-17.9 22.2-30.2 41.5-42.8 67-9.8 19.9-21.3 51.1-24.1 65.5-.2.8-1 4.2-1.8 7.5-1.3 5.1-3.1 13.7-5.2 24.4-.4 2.1-1.6 11.8-4 31.6-1.6 13.3-2.3 57-1.1 69 .3 2.7.8 8.4 1.1 12.5.7 8.9 1.3 14.4 2 18.5.3 1.6-1.9-3.5-4.9-11.5-10.5-28.5-26.5-65.7-34-79.3-1.3-2.3-4.9-9.2-8.1-15.2-20.4-39-53-87.2-82.1-121.5-1.2-1.4-4.1-4.8-6.4-7.5-15.5-18.2-44.1-47.5-61.5-63.1-5.5-4.9-11.1-10-12.5-11.2-5.2-5-32.8-27-42.9-34.4-11.6-8.4-41.8-28.8-42.7-28.8-.3 0-2-1.1-3.7-2.4-1.8-1.3-6.6-4.2-10.7-6.5s-8.2-4.6-9-5.1c-11.1-6.9-43.6-23.1-65-32.3-24.9-10.8-42.6-17.2-71-26-16-4.9-16.7-5.1-36-10.1-17.3-4.4-46.8-10.5-61.3-12.6-4.3-.6-8.8-1.3-10-1.5-11-1.8-23.4-3.5-29.2-4-3.8-.3-8.1-.8-9.5-1-1.4-.2-5.6-.6-9.5-.9-3.8-.4-9-.9-11.5-1.1-16.4-1.7-56-2-302.7-2.2L0 415v766.5zm528-482.2c2.5.3 8.1.8 12.5 1.2 16.7 1.4 19 1.6 36.5 4.1 1.4.2 4.3.6 6.5.8 2.2.3 5 .7 6.1 1 1.2.2 3.8.7 5.8 1 1.9.3 5.5 1 7.8 1.5 2.4.5 6.1 1.2 8.3 1.6 2.2.3 5.6 1 7.5 1.5 1.9.5 10 2.6 17.9 4.5 22.4 5.6 51.2 15.5 72.6 25 11.6 5.2 21 9.8 23.8 11.7 1.5 1.1 2.7 1.6 2.7 1.3 0-.3 1.3.3 2.9 1.4 1.6 1.2 3.2 2.1 3.5 2.1 1 0 21.1 12.4 30.6 18.9 35 23.9 70.7 57.9 92.5 88.1 2.1 3 4.2 5.7 4.6 6 1.2 1 16.7 24.7 22.1 34 10.6 18.1 25.4 49.1 30.3 63.5.9 2.8 2.2 6.3 3 8 2.6 5.8 10.5 32.2 14.4 48 4.1 16.5 9.1 42 11 56 .6 4.5 1.4 9.9 1.7 12 .6 4.5.9 7.9 1.9 18.5.3 4.1.8 8.9 1 10.6 2.5 18.8 2.5 100 0 120.8-.2 1.7-.6 6.2-1 10.1-.3 3.8-.7 8.1-.9 9.5-.2 1.4-.6 5-1 8s-.9 7.3-1.2 9.5c-.4 3.3-3.9 24.1-6 35-.9 5.1-4.2 19.7-5.9 26-.9 3.3-2.4 9.1-3.5 13-2.3 8.9-9.8 31.2-14.4 43.3-14.3 37.3-34.2 72.8-59.3 105.7-21.9 28.6-55.7 60.5-87.8 82.7-28.1 19.4-72.3 41.4-102 50.7-3.8 1.3-7.9 2.6-9 3.1-4 1.8-35.6 10.2-42.7 11.4-1.5.2-3.1.7-3.6.9-.6.4-19.6 3.9-33.2 6.2-16.2 2.6-47.2 5.7-59.2 5.9-2.7.1-4.8.4-4.8.7 0 .4-54.4.7-120.9.8-98.8.2-120.9 0-121.2-1.1-.4-1-.3-959.7 0-964.6.1-1.1 21.5-1.3 122.9-.9 67.5.3 124.7.7 127.2 1zm714.5 333.2c9.2 19 23.4 37.6 42.9 56.4 10.2 9.8 13.1 12.5 18.2 16.8 2.7 2.3 6 5.2 7.4 6.4 22.4 19.3 69.9 53.9 88.5 64.4 15.7 8.9 43.9 21.8 67 30.8 22.7 8.8 36.5 14.1 42.5 16.1 3.6 1.3 10.8 3.9 16 5.9 24.9 9.4 41.5 15.1 64.5 22.2 14.6 4.5 45.1 14.2 72.5 23 32.3 10.4 45.8 14.5 103.5 31.5 52.5 15.5 55.3 16.3 72 21.8 7.7 2.5 14.5 4.7 15 4.8.6.1 4.2 1.2 8 2.5 3.9 1.3 7.2 2.4 7.5 2.4.3.1 1.2.4 2 .7.8.3 8 2.9 16 5.8 8 2.8 15.9 5.8 17.5 6.5 1.7.7 6.4 2.7 10.5 4.3 7.9 3.2 27.1 11.9 33 15.1 1.9 1.1 8.9 4.7 15.5 8.1 36.1 18.7 56.8 39.9 67.8 69.5 6.7 18 9.3 36.1 8.4 57.5-.3 7.4-.8 14.5-1.1 15.6-.2 1.2-.7 3.9-1 6-1.1 6.7-5.5 20.1-9.5 28.7-8.7 18.6-24.9 38-42.6 51.1-2.2 1.7-4.2 3.3-4.5 3.6-.3.4-5.2 3.6-11 7.2-31.4 19.6-72.7 35-115 42.8-5.8 1.1-11.4 2.2-12.6 2.4-1.2.2-4.5.7-7.4 1.1-2.9.4-6 .8-6.9 1-.9.1-4.7.6-8.4 1-3.7.3-7.6.8-8.5 1-1 .2-6.3.6-11.7 1-5.5.4-11.8.8-14 1.1-6.3.6-72.4.6-78.5 0-3-.3-8.9-.8-13-1.1-17.8-1.1-24.7-1.6-27-2-1.4-.2-5-.6-8-.9-3-.4-7.3-.8-9.5-1.1-2.2-.3-6.2-.7-9-1-10.4-1.2-38.7-5.9-55.5-9.2-9.6-1.9-18.8-3.7-20.5-3.9-10.2-1.7-53.7-13.2-82.5-21.8-22.4-6.6-72.3-25-91.5-33.6-2.2-1-10.3-4.6-18-8-26.3-11.6-81.3-39.4-87-44-.5-.4-3.7-2.3-7-4.1-12.4-6.7-67.3-43.1-70.5-46.8-.3-.3-2.7-2.4-5.5-4.5-2.7-2.2-5.3-4.2-5.8-4.6-.4-.3 1.1-5.8 3.3-12.1 12.3-34.6 27.8-97.8 32.9-134.4 1.7-11.7 2-13.7 3.1-22 .6-4.4 1.3-9.1 1.5-10.5.2-1.4.6-5.4 1-9 .3-3.6.8-8.1 1.1-10.1.3-2 .7-7.2.9-11.4.2-4.3.6-8.5.9-9.4.2-.9.8-8.6 1.1-17.1.4-8.5.9-16.4 1.2-17.5.6-2.9.6-88.1 0-93.5-.3-2.5-.9-11-1.2-19-.4-8-.8-15.6-1.1-17-.2-1.4-.6-5.4-.9-9-.3-3.6-.7-7.9-1-9.5-.2-1.7-.7-6.6-1-11-.4-4.4-.8-8.7-1-9.5-.3-1.7-1.1-7.4-2-13.5-.3-2.2-.7-5.1-1-6.5-.2-1.4-.9-6.3-1.5-11s-2.2-13.8-3.6-20.4c-1.3-6.5-2.4-12.2-2.4-12.5.1-.3 2.7 5.5 5.9 12.9 3.1 7.4 7.9 18 10.6 23.5z"/></svg>